<?xml version="1.0" encoding="UTF-8" standalone="no"?>
<!-- Generator: Adobe Illustrator 19.0.0, SVG Export Plug-In . SVG Version: 6.00 Build 0)  -->

<svg
   xmlns:dc="http://purl.org/dc/elements/1.1/"
   xmlns:cc="http://creativecommons.org/ns#"
   xmlns:rdf="http://www.w3.org/1999/02/22-rdf-syntax-ns#"
   xmlns:svg="http://www.w3.org/2000/svg"
   xmlns="http://www.w3.org/2000/svg"
   xmlns:sodipodi="http://sodipodi.sourceforge.net/DTD/sodipodi-0.dtd"
   xmlns:inkscape="http://www.inkscape.org/namespaces/inkscape"
   version="1.1"
   id="Capa_1"
   x="0px"
   y="0px"
   viewBox="0 0 512 512"
   style="enable-background:new 0 0 512 512;"
   xml:space="preserve"
   sodipodi:docname="coin_green.svg"
   inkscape:version="0.92.4 (5da689c313, 2019-01-14)"><metadata
   id="metadata962"><rdf:RDF><cc:Work
       rdf:about=""><dc:format>image/svg+xml</dc:format><dc:type
         rdf:resource="http://purl.org/dc/dcmitype/StillImage" /><dc:title></dc:title></cc:Work></rdf:RDF></metadata><defs
   id="defs960">
	
</defs><sodipodi:namedview
   pagecolor="#ffffff"
   bordercolor="#666666"
   borderopacity="1"
   objecttolerance="10"
   gridtolerance="10"
   guidetolerance="10"
   inkscape:pageopacity="0"
   inkscape:pageshadow="2"
   inkscape:window-width="1366"
   inkscape:window-height="705"
   id="namedview958"
   showgrid="false"
   inkscape:zoom="0.921875"
   inkscape:cx="214.60141"
   inkscape:cy="292.05472"
   inkscape:window-x="-8"
   inkscape:window-y="-8"
   inkscape:window-maximized="1"
   inkscape:current-layer="Capa_1" />
<g
   id="g923"
   transform="translate(1.084745,5.4237284)"
   style="fill:#1c890d;fill-opacity:1">
		<path
   inkscape:connector-curvature="0"
   id="path921"
   d="M 437.019,74.98 C 388.668,26.629 324.381,0 256,0 187.62,0 123.333,26.629 74.981,74.98 26.629,123.332 0,187.619 0,256 0,324.381 26.628,388.668 74.981,437.02 123.333,485.371 187.62,512 256,512 324.381,512 388.668,485.371 437.02,437.02 485.372,388.668 512,324.381 512,256 512,187.619 485.372,123.332 437.019,74.98 Z M 272.068,367.4 H 271 v 33.201 c 0,8.284 -6.715,15 -15,15 -8.283,0 -15,-6.716 -15,-15 V 367.4 h -33.199 c -8.283,0 -15,-6.716 -15,-15 0,-8.284 6.717,-15 15,-15 h 64.268 c 18.306,0 33.199,-14.894 33.199,-33.2 0,-18.306 -14.894,-33.2 -33.2,-33.2 h -32.135 c -34.848,0 -63.199,-28.351 -63.199,-63.199 0,-34.849 28.352,-63.2 63.199,-63.2 H 241 v -33.2 c 0,-8.284 6.717,-15 15,-15 8.285,0 15,6.716 15,15 v 33.2 h 33.201 c 8.283,0 15,6.716 15,15 0,8.284 -6.717,15 -15,15 h -64.268 c -18.307,0 -33.199,14.893 -33.199,33.2 0,18.306 14.893,33.199 33.199,33.199 h 32.135 c 34.848,0 63.199,28.352 63.199,63.2 0,34.848 -28.351,63.2 -63.199,63.2 z"
   style="fill:#1c890d;fill-opacity:1" />
	</g>
<g
   id="g927">
</g>
<g
   id="g929">
</g>
<g
   id="g931">
</g>
<g
   id="g933">
</g>
<g
   id="g935">
</g>
<g
   id="g937">
</g>
<g
   id="g939">
</g>
<g
   id="g941">
</g>
<g
   id="g943">
</g>
<g
   id="g945">
</g>
<g
   id="g947">
</g>
<g
   id="g949">
</g>
<g
   id="g951">
</g>
<g
   id="g953">
</g>
<g
   id="g955">
</g>
</svg>